<?xml version="1.0" encoding="utf-8" ?>
<svg xmlns="http://www.w3.org/2000/svg" xmlns:xlink="http://www.w3.org/1999/xlink" width="1169" height="795">
	<g>
		<path fill="#F0EFED" d="M835.479 92.735C838.057 92.1711 841.576 91.9784 844.173 92.4789C851.895 93.9671 862.499 108.337 866.816 114.848C873.625 125.12 879.515 137.717 884.819 148.865C891.834 163.609 897.348 178.932 903.904 193.843C907.373 201.736 934.97 256.891 934.013 261.552C942.51 261.93 951.056 261.388 959.536 262.119C972.668 263.25 985.498 266.336 998.542 268.024C1004.96 268.855 1011.53 268.876 1017.99 269.343C1026.41 269.954 1034.81 270.977 1043.24 271.648C1066.21 273.479 1092.2 271.507 1114.37 276.717C1118.38 277.66 1122.57 278.677 1124.78 282.557C1125.83 284.403 1126.43 286.486 1125.86 288.579C1125.32 290.532 1124.26 292.447 1123.07 294.078C1120.06 298.2 1116.13 301.711 1112.94 305.72C1108.74 310.996 1105.25 316.923 1100.7 321.903C1096.76 326.216 1092.26 329.961 1088.1 334.052L1054.72 366.243L1021.2 399.498C1016.48 404.128 1011.54 410.246 1005.9 413.618C1006.11 413.867 1006.53 414.348 1006.72 414.66C1008.74 417.995 1009.66 423.46 1010.97 427.273Q1018.63 448.877 1025.92 470.608C1030.58 484.326 1035.32 498.248 1040.71 511.692C1046.07 525.079 1052.88 537.918 1058.48 551.22C1064.63 565.835 1069.41 580.858 1074.4 595.887C1075.85 600.248 1079.83 608.512 1078.77 612.736C1079.28 614.663 1078.68 616.431 1077.91 618.207C1076.19 622.161 1072.7 624.453 1068.82 625.984Q1067.81 626.375 1066.78 626.684Q1065.74 626.993 1064.68 627.218Q1063.63 627.444 1062.55 627.584Q1061.48 627.724 1060.4 627.779Q1059.32 627.833 1058.24 627.801Q1057.16 627.769 1056.09 627.65Q1055.01 627.532 1053.95 627.328Q1052.89 627.125 1051.85 626.837C1036.19 622.409 1021.82 614.714 1007.18 607.783Q986.362 598.052 965.322 588.811C954.617 584.091 943.586 580.069 932.786 575.543C918.604 569.599 904.466 563.146 890.167 557.537C883.584 554.954 876.73 553.109 870.194 550.398C862.789 547.328 855.812 543.384 848.472 540.189C846.737 542.998 841.252 545.931 838.516 547.821C817.028 562.669 794.818 576.516 771.285 587.936C760.25 593.291 748.679 596.898 737.722 602.632L671.265 636.95C665.452 639.983 660.27 644.218 654.362 647.032C647.522 650.291 639.537 652.769 632.134 650.062C629.014 648.92 626.436 647.045 625.07 643.915C621.724 636.248 623.932 626.974 625.668 619.165C629.62 601.397 635.269 585.471 643.225 569.092C647.547 560.197 652.453 551.631 656.162 542.45C653.233 525.215 662.292 511.211 671.88 497.665C674.64 493.767 677.757 489.94 680.027 485.732C682.926 480.355 685.03 474.541 687.766 469.073C693.171 458.272 699.082 448.052 704.013 436.971C690.796 444.2 678.362 453.151 669.346 465.377C658.507 480.074 653.653 499.377 647.361 516.221C644.475 523.946 641.009 531.413 638.796 539.385C636.176 548.819 634.768 558.589 632.331 568.075C629.824 577.833 626.592 587.558 624.851 597.479C623.678 604.161 623.144 611 621.733 617.632C620.467 623.586 618.183 629.312 616.952 635.278C616.005 639.87 616.466 645.824 614.438 649.974C613.64 651.608 612.343 652.902 610.561 653.383C608.055 654.059 604.869 653.424 602.659 652.117C598.791 649.827 596.805 645.351 595.65 641.196C591.688 626.946 593.447 608.339 595.684 593.899C598.335 576.78 603.976 561.197 608.25 544.565C614.256 521.193 619.703 497.783 626.476 474.598C628.776 466.722 631.705 459.027 634.203 451.209C638.154 438.846 640.868 427.003 647.366 415.575C644.169 418.385 639.377 420.854 637.459 424.763C635.408 428.943 635.899 438.541 634.83 443.772C632.347 455.92 625.35 471.856 619.01 482.522C612.456 493.55 603.723 502.007 594.574 510.857C582.765 522.282 569.933 535.54 553.395 539.622C545.507 541.569 537.697 539.809 530.831 535.531C524.198 531.398 519.251 523.436 517.446 515.956C516.971 513.44 516.464 510.898 516.173 508.353C514.533 494.051 519.598 482.983 524.047 469.924C525.784 464.826 526.866 459.516 528.659 454.434C531.695 445.832 537.262 435.889 542.903 428.725C539.414 420.735 538.487 413.1 541.168 404.68C544.45 394.374 554.008 384.257 563.614 379.35C576.401 372.818 593.161 372.929 606.663 377.386C617.134 380.842 628.655 388.533 633.662 398.638C641.232 394.855 648.856 390.379 655.335 384.919C644.421 372.601 634.803 359.055 625.076 345.799C609.999 325.252 595.174 304.583 579.352 284.597C579.587 292.589 579.133 301.308 578.182 309.246C573.8 345.795 556.165 375.858 535.676 405.596C529.301 414.849 523.012 425.265 514.017 432.211C508.73 436.295 500.394 440.826 493.458 439.78C489.739 439.218 486.726 437.011 484.554 434.026C479.79 427.476 478.76 417.069 480.032 409.28C481.449 400.6 491.664 381.846 498.958 376.865C501.383 375.21 504.218 374.255 507.154 374.943C510.104 375.633 512.034 377.529 513.57 380.008L513.896 380.542C519.008 372.105 522.169 363.416 526.064 354.423C528.955 347.749 532.282 341.267 535.195 334.601C540.32 322.875 549.617 302.727 549.716 290.405C549.749 286.328 548.676 282.852 547.199 279.091C539.205 278.599 531.43 279.704 523.681 281.61C510.27 284.909 499.117 291.784 486.607 297.122C481.842 299.155 476.616 299.872 471.897 302.02C436.181 318.275 423.084 340.801 403.594 373.036C409.39 367.983 419.186 359.639 427.315 360.453C430.704 360.792 432.673 362.461 434.725 364.955C436.974 349.519 440.674 334.918 450.759 322.571C456.305 315.781 462.043 310.49 471.173 309.908C472.862 309.801 474.317 310.336 475.572 311.483C478.643 314.29 478.862 319.137 478.791 323.002C478.549 336.143 475.819 349.044 474.777 362.119Q472.994 383.244 472.688 404.442Q472.382 425.64 473.554 446.808C474.242 459.48 475.137 472.591 477.304 485.098C480.358 502.719 484.964 520.105 485.79 538.05C486.139 545.643 485.772 559.715 480.042 565.582C478.504 567.157 476.469 567.941 474.27 567.849C470.748 567.702 467.77 565.308 465.548 562.76C459.316 555.614 455.442 544.935 452.169 536.142C448.63 526.635 446.108 516.862 443.454 507.08C441.614 500.297 439.471 493.418 438.212 486.504C435.987 474.288 435.25 461.779 434.401 449.406C432.758 425.475 431.901 401.865 433.63 377.908C431.843 381.59 429.423 385.076 427.054 388.407C424.002 392.696 420.747 396.882 416.826 400.42C409.521 407.009 396.486 414.3 386.695 415.836C380.958 416.737 375.318 415.121 370.699 411.638C366.448 408.434 363.355 403.78 362.666 398.452C362.023 393.484 363.059 388.181 364.185 383.336C368.364 365.369 376.732 351.255 387.86 336.699C402.838 317.106 418.052 302.525 437.722 287.746C444.361 282.757 451.019 277.766 458.257 273.663C466.845 268.793 476.05 264.838 485.153 261.028C500.321 254.678 514.342 249.994 530.769 247.832C542.342 246.309 557.1 247.031 566.683 254.466L567.288 254.94C567.978 254.631 567.907 254.771 568.295 254.315C569.642 252.731 570.72 251.033 572.375 249.721C577.031 246.027 595.312 245.146 601.819 245.197C610.639 245.266 619.585 246.433 628.383 247.167Q658.942 249.482 689.324 253.5C700.702 254.92 712.186 255.563 723.535 257.151C735.343 258.803 747.042 261.331 758.857 262.821C764.831 248.655 772.181 235.103 778.081 220.97C783.748 207.397 788.087 193.433 794.229 179.994C803.145 160.486 813.207 141.553 822.282 122.149C826.676 112.752 829.061 100.889 835.479 92.735ZM630.868 409.788C627.898 400.405 616.166 387.541 607.466 382.998C596.885 377.474 582.305 377.633 571.08 381.227C561.559 384.276 553.913 390.202 549.336 399.17C545.617 406.456 544.319 414.725 546.855 422.614C547.696 425.232 549.023 427.535 550.47 429.857C546.205 435.377 541.92 440.794 538.817 447.08C530.784 463.351 524.471 493.633 526.917 511.664C528.064 520.124 533.093 527.325 539.807 532.43C542.179 534.234 545.387 535.294 548.139 536.418C576.346 528.538 599.248 505.056 613.37 480.149C623.005 463.153 630.539 439.811 631.573 420.257C640.769 414.659 649.744 408.924 658.349 402.434C652.196 417.26 647.63 432.62 642.033 447.664C637.298 460.393 631.404 472.873 627.311 485.787C623.745 497.037 621.04 508.681 618.022 520.095C608.808 554.947 599.526 590.955 598.674 627.131C598.553 632.261 597.987 638.504 600.145 643.313C600.826 644.832 601.88 646.068 603.478 646.635C604.802 647.104 605.277 646.981 606.596 646.692C608.997 644.954 609.628 642.458 610.374 639.734C612.145 633.264 613.275 626.528 614.713 619.969Q619.634 597.166 624.944 574.45C631.112 548.973 639.109 524.197 646.681 499.125C648.824 492.836 650.617 485.076 653.801 479.247C665.483 457.864 697.816 430.844 719.37 420.065C726.861 416.319 749.417 408.487 757.189 411.223C761.045 412.581 763.569 415.479 765.984 418.647C765.733 426.14 764.37 433.632 762.683 440.924C757.273 464.309 747.889 474.722 730.886 490.611C718.139 502.523 704.788 507.802 690.368 516.743C692.654 512.782 695.446 509.507 698.574 506.205C701.883 502.714 723.976 482.93 723.256 480.394C722.886 479.095 722.521 478.078 721.304 477.365C718.694 475.837 715.063 476.7 712.351 477.547C692.069 483.883 675.495 503.204 666.003 521.549C664.026 525.37 661.784 531.026 663.19 535.349C663.769 537.129 665.108 538.48 666.798 539.253C672.736 541.969 686.202 539.506 691.912 537.087C697.92 534.542 703.418 530.4 709.154 527.276C725.744 518.237 748.116 504.548 760.915 490.361C766.72 483.928 771.491 476.372 775.999 469.006C780.196 462.146 784.207 455.247 787.154 447.745C792.375 434.454 795.902 416.93 790.024 403.373C786.407 395.031 779.53 388.91 771.099 385.68C755.989 379.893 738.389 383.517 724.053 390.01C708.71 396.959 694.582 408.82 683.098 420.987C677.886 426.509 673.018 432.744 667.109 437.525C670.04 429.672 690.906 377.626 688.425 372.676C687.525 370.882 685.833 370.018 683.98 369.511C681.917 368.947 679.715 368.492 677.571 368.59C673.135 372.464 671.06 378.106 667.083 382.354C656.911 393.22 643.42 401.938 630.868 409.788Z"/>
		<path fill="#E7D292" d="M841.406 99.0158C844.541 98.728 847.314 98.6338 849.955 100.683C851.912 102.2 853.062 104.342 854.178 106.503C860.627 118.987 866.372 131.944 872.41 144.636L906.303 215.788C910.395 224.376 930.652 264.413 931.407 269.62C939.837 269.698 948.287 270.747 956.693 271.375L1010.65 275.649L1077.39 280.917C1087.55 281.722 1097.87 281.993 1107.97 283.284C1111.37 283.719 1114.47 284.57 1116.57 287.534C1117.62 289.025 1118.02 290.696 1117.64 292.486C1117 295.536 1114.77 298.481 1112.69 300.728C1102.95 311.281 1091.83 321.16 1081.43 331.11L1035.64 375.398L1009.82 400.516C1004.86 405.37 999.85 411.047 994.195 415.051C994.483 415.283 994.577 415.334 994.822 415.676C997.576 419.525 999.247 425.85 1001.08 430.322L1015.16 464.528L1053.36 557.414C1060.03 573.655 1067.11 589.821 1073.33 606.23C1074.12 608.302 1074.93 610.4 1074.44 612.639C1074.51 613.064 1074.55 613.144 1074.49 613.638C1074.27 615.565 1072.92 618.244 1071.19 619.198C1068.78 620.53 1065.56 620.134 1062.98 619.465C1059.42 618.541 1055.94 616.808 1052.53 615.456C1040.96 610.879 1029.68 605.75 1018.2 601.002L896.044 550.106L860.85 535.316C854.461 532.631 847.779 529.342 841.119 527.453C838.275 530.474 821.365 539.213 816.681 541.921L745.67 583L680.329 620.782C670.817 626.293 657.477 635.274 647.845 639.106Q647.49 639.25 647.124 639.363Q646.758 639.476 646.384 639.557Q646.01 639.639 645.63 639.688Q645.25 639.738 644.868 639.755Q644.485 639.771 644.102 639.756Q643.72 639.74 643.34 639.691Q642.96 639.643 642.586 639.563Q642.211 639.482 641.845 639.37Q641.464 639.252 641.097 639.094Q640.731 638.935 640.384 638.738Q640.037 638.541 639.714 638.307Q639.39 638.073 639.094 637.805Q638.798 637.538 638.533 637.24Q638.267 636.942 638.036 636.616Q637.805 636.291 637.61 635.943Q637.416 635.594 637.26 635.227C636.336 633.053 636.397 630.705 636.954 628.458C639.111 619.761 643.635 610.831 646.982 602.459C654.485 583.691 662.231 564.981 669.36 546.07C669.977 546.216 670.591 546.347 671.219 546.441C694.15 549.874 726.84 527.793 744.627 514.451C760.343 502.663 781.568 477.961 789.261 459.577C792.841 451.022 794.829 440.968 796.127 431.822C798.059 418.21 798.045 402.182 789.343 390.834C782.419 381.804 773.064 378.102 762.031 376.626C734.807 372.985 713.85 383.148 692.749 399.283C690.824 396.873 688.726 394.575 686.707 392.242C688.461 385.977 692.353 380.629 694.088 374.405C693.245 372.098 692.46 369.205 690.788 367.352C688.79 365.14 686.182 363.686 683.15 363.659C677.023 363.605 672.563 368.08 668.533 372.073C647.183 346.792 624.544 322.379 602.508 297.681C594.487 288.691 586.109 279.846 578.444 270.558C576.083 267.697 573.13 264.729 573.641 260.778C573.942 258.455 575.128 256.412 577.028 255.031C579.051 253.56 581.235 253.174 583.672 253.224C592.131 253.4 600.809 254.78 609.227 255.664L657.552 260.73L729.402 268.116C741.15 269.334 753.144 270.017 764.811 271.79C771.61 257.42 777.36 242.374 783.529 227.707L816.578 149.181L828.668 120.272C831.016 114.664 833.155 108.531 836.206 103.277C837.448 101.138 839.19 100.045 841.406 99.0158Z"/>
		<path fill="#395951" d="M677.571 368.59C679.715 368.492 681.917 368.947 683.98 369.511C685.833 370.018 687.525 370.882 688.425 372.676C690.906 377.626 670.04 429.672 667.109 437.525C673.018 432.744 677.886 426.509 683.098 420.987C694.582 408.82 708.71 396.959 724.053 390.01C738.389 383.517 755.989 379.893 771.099 385.68C779.53 388.91 786.407 395.031 790.024 403.373C795.902 416.93 792.375 434.454 787.154 447.745C784.207 455.247 780.196 462.146 775.999 469.006C771.491 476.372 766.72 483.928 760.915 490.361C748.116 504.548 725.744 518.237 709.154 527.276C703.418 530.4 697.92 534.542 691.912 537.087C686.202 539.506 672.736 541.969 666.798 539.253C665.108 538.48 663.769 537.129 663.19 535.349C661.784 531.026 664.026 525.37 666.003 521.549C675.495 503.204 692.069 483.883 712.351 477.547C715.063 476.7 718.694 475.837 721.304 477.365C722.521 478.078 722.886 479.095 723.256 480.394C723.976 482.93 701.883 502.714 698.574 506.205C695.446 509.507 692.654 512.782 690.368 516.743C704.788 507.802 718.139 502.523 730.886 490.611C747.889 474.722 757.273 464.309 762.683 440.924C764.37 433.632 765.733 426.14 765.984 418.647C763.569 415.479 761.045 412.581 757.189 411.223C749.417 408.487 726.861 416.319 719.37 420.065C697.816 430.844 665.483 457.864 653.801 479.247C650.617 485.076 648.824 492.836 646.681 499.125C639.109 524.197 631.112 548.973 624.944 574.45Q619.634 597.166 614.713 619.969C613.275 626.528 612.145 633.264 610.374 639.734C609.628 642.458 608.997 644.954 606.596 646.692C605.277 646.981 604.802 647.104 603.478 646.635C601.88 646.068 600.826 644.832 600.145 643.313C597.987 638.504 598.553 632.261 598.674 627.131C599.526 590.955 608.808 554.947 618.022 520.095C621.04 508.681 623.745 497.037 627.311 485.787C631.404 472.873 637.298 460.393 642.033 447.664C647.63 432.62 652.196 417.26 658.349 402.434C649.744 408.924 640.769 414.659 631.573 420.257C630.539 439.811 623.005 463.153 613.37 480.149C599.248 505.056 576.346 528.538 548.139 536.418C545.387 535.294 542.179 534.234 539.807 532.43C533.093 527.325 528.064 520.124 526.917 511.664C524.471 493.633 530.784 463.351 538.817 447.08C541.92 440.794 546.205 435.377 550.47 429.857C549.023 427.535 547.696 425.232 546.855 422.614C544.319 414.725 545.617 406.456 549.336 399.17C553.913 390.202 561.559 384.276 571.08 381.227C582.305 377.633 596.885 377.474 607.466 382.998C616.166 387.541 627.898 400.405 630.868 409.788C643.42 401.938 656.911 393.22 667.083 382.354C671.06 378.106 673.135 372.464 677.571 368.59ZM554.221 507.755C559.282 501.545 564.22 495.151 569.53 489.155C582.941 474.012 597.867 459.377 605.528 440.152L604.736 440.047C593.484 443.376 583.901 445.924 572.106 443.834C569.759 450.938 566.521 457.662 564.069 464.711C560.818 474.056 558.642 483.889 556.322 493.498C555.286 497.788 553.519 503.047 553.737 507.458L554.221 507.755ZM597.033 418.26C603.186 417.357 609.564 415.207 614.945 412.049C609.767 406.341 604.852 400.41 596.505 400.16C594.941 400.113 593.362 400.196 591.799 400.276C586.303 401.295 578.421 403.233 575.027 408.168C574.163 409.425 573.667 410.939 573.94 412.468C574.275 414.342 575.649 415.792 577.216 416.765C582.471 420.028 591.215 419.304 597.033 418.26Z"/>
		<path fill="#F0EFED" d="M614.068 429.232L614.429 430.056C605.477 455.586 597.22 469.169 580.947 490.64C571.635 502.926 563.082 513.109 551.17 523.006L550.091 522.678Q549.593 520.842 549.31 518.96C546.478 500.216 552.785 468.226 560.557 451.189C562.845 446.173 565.862 441.889 569.133 437.497C586.639 440.273 598.443 436.546 614.068 429.232ZM572.106 443.834C569.759 450.938 566.521 457.662 564.069 464.711C560.818 474.056 558.642 483.889 556.322 493.498C555.286 497.788 553.519 503.047 553.737 507.458L554.221 507.755C559.282 501.545 564.22 495.151 569.53 489.155C582.941 474.012 597.867 459.377 605.528 440.152L604.736 440.047C593.484 443.376 583.901 445.924 572.106 443.834Z"/>
		<path fill="#F0EFED" d="M591.377 392.195C598.297 391.871 603.816 393.601 609.571 397.511C615.687 401.665 620.743 407.197 622.159 414.579Q609.41 421.639 595.752 426.724C592.019 426.575 589.175 427.399 585.572 428.147C581.052 429.085 576.547 427.191 572.848 424.68C569.949 422.71 567.478 419.858 566.893 416.3C566.242 412.333 568.015 408.303 570.222 405.102C575.192 397.894 582.924 393.791 591.377 392.195ZM597.033 418.26C603.186 417.357 609.564 415.207 614.945 412.049C609.767 406.341 604.852 400.41 596.505 400.16C594.941 400.113 593.362 400.196 591.799 400.276C586.303 401.295 578.421 403.233 575.027 408.168C574.163 409.425 573.667 410.939 573.94 412.468C574.275 414.342 575.649 415.792 577.216 416.765C582.471 420.028 591.215 419.304 597.033 418.26Z"/>
		<path fill="#395951" d="M531.223 253.058C541.656 251.91 553.348 252.068 561.927 258.864C570.646 265.769 573.037 275.248 574.149 285.814C577.534 317.957 555.281 374.187 534.898 399.172C527.332 408.447 504.727 434.798 492.417 435.669C490.521 435.804 488.637 435.508 487.197 434.173C485.348 432.46 484.852 429.284 484.866 426.863C484.947 413.361 490.54 391.951 500.657 382.142C502.436 380.418 504.275 379.263 506.828 379.323C507.891 379.901 508.396 380.231 508.851 381.396C511.15 387.291 507.92 395.376 505.891 400.929C517.962 384.811 540.845 342.801 547.317 323.858C549.113 318.601 555.654 289.857 555.553 285.267C555.496 282.707 554.592 279.872 553.443 277.6C550.671 272.119 545.79 270.409 540.325 268.613C528.185 271.096 515.715 273.426 504.063 277.7C495.411 280.873 487.206 285.136 478.973 289.244C467.504 295.13 456.668 302.588 446.62 310.635C423.138 329.438 412.681 343.041 397.919 369.078C393.298 377.229 388.296 385.327 385.244 394.223C401.673 389.098 408.989 374.796 421.733 367.203C423.618 366.08 425.699 365.273 427.894 365.807C428.944 366.827 429.327 367.298 429.448 368.803C429.896 374.374 424.141 382.697 420.932 386.864C413.567 396.429 398.606 409.157 386.376 410.643C382.058 411.168 377.383 410.341 373.912 407.588C370.113 404.574 368.663 399.898 368.222 395.232C367.641 389.089 367.916 381.802 369.738 375.875C372.883 365.648 392.209 338.513 400.022 329.097C421.466 303.255 463.65 271.898 495.302 260.443C507.022 256.202 518.853 254.184 531.223 253.058Z"/>
		<path fill="#395951" d="M463.427 313.91C464.921 313.816 466.477 313.714 467.97 313.84C469.496 313.969 470.964 314.679 471.895 315.921C473.515 318.082 473.255 320.964 472.935 323.475C467.84 363.422 468.491 402.92 470.741 443.014C471.548 457.401 472.079 471.707 473.688 486.041Q475.962 504.879 479.049 523.601C480.551 532.83 484.172 544.115 483.196 553.357C482.999 555.218 482.506 557.376 480.882 558.519C479.794 559.284 478.298 559.388 477.045 559.029C474.641 558.34 473.548 555.965 472.435 553.944C462.102 533.624 455.304 509.866 451.847 487.319C450.463 478.295 449.867 469.164 448.642 460.116C443.187 419.833 438.393 379.22 447.881 339.126C450.1 329.75 454.925 319.177 463.427 313.91Z"/>
		<path fill="#E7D292" d="M739.058 418.99C744.368 418.474 752.655 418.028 756.957 421.66C758.957 423.35 759.762 425.892 759.903 428.432C760.791 444.46 738.866 468.686 728.331 479.953Q728.269 479.18 728.156 478.413C727.586 474.688 726.363 472.998 723.451 470.857C714.59 467.787 705.666 471.719 697.522 475.149C704.213 461.214 708.143 445.823 715.019 432.047C718.93 424.21 731.291 421.629 739.058 418.99Z"/>
		<path fill="#F0EFED" d="M391.428 200.564C394.191 200.063 397.534 200.299 400.169 201.301C403.878 202.712 406.865 205.369 408.425 209.052C411.14 215.462 408.372 223.098 405.809 229.087C401.167 239.929 393.812 250.243 387.894 260.458C375.175 282.414 368.87 299.314 349.382 317.345C345.165 321.247 340.637 325.316 335.225 327.451C331.657 328.859 327.834 329.171 324.244 327.595C321.504 326.392 319.117 324.312 318.112 321.432C316.904 317.967 317.729 313.971 318.871 310.602C322.289 300.514 328.702 291.077 334.035 281.887C339.479 272.505 344.597 263.137 349.281 253.353C337.909 263.94 325.72 273.222 314.986 284.577C295.224 305.482 281.529 330.953 269.495 356.84C266.165 364.004 262.598 371.181 260.084 378.685C255.987 390.916 262.926 421.543 266.888 434.391C268.9 440.912 271.587 447.157 274.071 453.505C285.207 481.964 295.65 510.591 310.451 537.449C333.044 578.447 366.502 613.803 397.513 648.532C405.963 657.994 415.782 666.138 424.376 675.434C428.012 679.366 431.267 683.769 434.551 688.001C436.77 690.86 439.506 693.888 441.049 697.165C442.796 700.878 443.401 706.328 441.815 710.172C440.617 713.074 437.821 715.585 434.88 716.665C429.945 718.476 424.385 716.865 419.863 714.651C408.847 709.258 398.942 699.653 389.781 691.606C375.159 678.762 360.29 664.819 347.641 650.019C332.496 632.298 317.689 610.465 305.199 590.792C299.098 581.182 294.052 570.899 287.887 561.37C276.839 544.294 264.028 528.581 254.489 510.489C250.575 503.067 248.074 494.99 244.861 487.259C240.042 475.665 234.695 464.446 230.565 452.556C223.364 474.517 217.518 496.862 215.562 519.97C214.563 532.384 213.218 544.821 212.743 557.266C212.363 567.205 213.276 577.556 211.597 587.371C210.765 592.238 209.401 598.226 204.978 601.145C203.134 602.362 201.058 602.635 198.923 602.133C190.155 600.071 182.982 589.118 178.413 581.962C166.027 562.564 162.513 543.086 160.169 520.595C159.143 510.758 158.204 501.071 158.645 491.167C158.987 483.507 161.007 476.003 161.292 468.398C161.855 453.396 160.226 438.46 161.09 423.36C161.822 410.581 162.702 397.191 164.688 384.558C168.277 361.724 174.34 339.093 179.326 316.512C163.13 342.719 145.588 373.649 123.319 395.077C114.661 403.407 100.022 413.807 87.547 413.425C83.1302 413.289 78.6949 411.836 75.6672 408.49C70.417 402.688 70.1376 391.994 70.5962 384.664C71.1246 376.22 73.3967 367.545 75.5296 359.375C77.5432 351.662 79.0187 343.509 82.03 336.111C87.2918 323.184 94.829 312.353 102.724 300.964C108.453 292.701 113.776 284.271 120.032 276.371C130.197 263.532 143.25 250.86 155.548 240.036C171.286 226.182 188.139 214.439 208.458 208.539C213.617 207.042 219.083 205.646 224.493 206.047C228.206 206.322 231.628 207.61 234.099 210.505C236.562 213.391 237.328 216.672 237.372 220.364C237.602 239.46 232.548 258.358 229.523 277.06C228.272 284.791 228.204 292.666 226.881 300.428C223.596 319.705 219.272 338.798 215.943 358.056C213.181 374.031 211.194 390.373 209.726 406.516C216.909 387.853 227.237 370.197 236.966 352.76C244.708 338.883 251.075 324.295 259.526 310.793C268.255 296.849 279.869 283.695 290.318 270.976C295.011 265.263 300.593 260.267 305.862 255.093C325.604 235.707 342.846 220.653 368.048 208.465C375.72 204.754 382.84 201.393 391.428 200.564ZM129.354 324.657L151.939 302.522C157.25 297.333 162.697 291.203 168.979 287.2C171.821 285.389 175.526 283.867 178.947 283.975C181.422 284.053 183.721 284.732 185.909 285.86L186.633 285.783C188.279 281.521 188.877 276.973 190.3 272.648C191.72 268.331 199.693 253.324 198.846 249.959C189.01 259.471 177.802 267.56 167.595 276.664C157.081 286.043 131.029 312.105 128.206 325.447C128.655 325.202 129.016 325.049 129.354 324.657Z"/>
		<path fill="#395951" d="M393.486 206.101C394.499 206.039 395.511 205.996 396.511 206.21C398.366 206.607 399.775 207.439 400.704 209.13C402.426 212.265 401.751 216.65 400.807 219.921C394.329 242.376 351.169 313.353 331.525 324.246C329.164 323.147 325.473 321.908 324.104 319.544C323.369 318.274 323.573 317.659 324.148 316.354C326.833 310.257 330.578 304.549 333.883 298.77C344.932 279.442 359.613 256.764 364.487 235.007Q359.607 237.899 354.922 241.097Q350.237 244.295 345.766 247.786Q341.294 251.277 337.055 255.046Q332.816 258.815 328.826 262.847C302.189 290.044 278.325 328.298 261.073 362.3C257.934 368.488 254.321 374.797 251.986 381.326C242.957 406.56 266.926 467.676 277.928 491.845C287.765 513.456 299.299 535.273 311.698 555.534C326.4 579.559 345.006 605.564 363.439 626.956C379.541 645.643 396.851 663.337 414.284 680.783C419.533 686.036 425.284 690.854 430.399 696.213C431.715 697.593 433.087 699.111 433.826 700.891C434.421 702.321 434.407 703.756 433.721 705.15C433.134 706.343 432.292 707.239 431.011 707.666C428.608 708.467 425.761 707.176 423.664 706.031C414.717 701.147 405.605 692.816 398.085 685.957C388.901 677.58 380.563 668.646 372.134 659.542Q353.203 639.449 336.183 617.714C319.826 596.671 304.999 574.305 290.087 552.226C282.827 541.477 274.722 530.719 268.274 519.498C261.876 508.362 256.722 496.575 251.354 484.92C243.849 468.624 236.002 452.216 231.052 434.929C228.684 440.554 227.087 446.79 225.251 452.619C221.927 463.173 218.597 473.684 216.031 484.453C213.809 493.778 212.234 503.222 210.315 512.608C208.164 523.131 205.494 532.994 204.326 543.745C203.099 555.034 202.784 566.753 203.217 578.099C203.356 581.748 204.331 585.337 204.172 588.998C204.106 590.529 203.751 592.122 202.758 593.332C201.918 594.356 200.537 595.042 199.209 595.081C197.936 595.117 196.783 594.476 195.869 593.635C192.669 590.689 191.173 585.681 189.354 581.812C175.993 553.388 171.947 526.778 169.957 495.741C168.825 479.584 169.491 464.101 170.451 447.966C171.626 428.217 173.098 408.694 175.928 389.105C177.625 377.365 180.09 365.805 182.052 354.118C184.825 337.6 186.831 320.949 190.168 304.522Q191.989 295.642 194.299 286.875Q196.608 278.109 199.399 269.484Q202.191 260.859 205.455 252.402Q208.719 243.945 212.446 235.681C209.045 237.215 205.599 238.722 202.304 240.475C191.11 246.43 181.214 255.377 171.905 263.896C148.283 285.508 129.796 305.07 120.416 336.582C119.718 338.926 119.069 341.282 120.276 343.516C129.48 344.011 165.863 290.878 174.611 288.12C176.435 287.545 178.34 288.326 179.907 289.265C181.918 290.468 183.422 292.057 183.979 294.382C185.671 301.445 173.897 319.793 169.679 326.349C152.678 352.772 138.438 370.674 114.848 391.212C108.218 396.984 99.705 404.408 90.9212 406.207C88.2064 406.763 85.1745 406.748 82.8435 405.053C79.4588 402.592 78.2608 397.631 77.6803 393.711C76.4235 385.226 78.1569 376.425 80.0578 368.153C87.5393 335.597 103.788 306.69 123.615 280.11C143.841 252.995 165.604 232.863 197.08 219.524C205.302 216.04 213.58 212.712 222.46 211.42C224.773 212.297 228.96 213.411 230.534 215.305C231.651 216.649 231.68 217.939 231.499 219.618C230.517 228.715 227.922 238.142 226.227 247.178C224.358 257.145 223.26 267.182 221.979 277.235C218.138 307.367 212.922 337.312 209.083 367.437Q203.87 408.7 202.553 450.27C205.456 442.963 207.837 435.486 210.946 428.246C218.211 411.33 226.686 394.922 234.427 378.222C243.61 358.412 252.535 338.026 263.867 319.343C286.112 282.67 319.615 239.665 357.797 219.068C368.713 213.179 381.475 209.041 393.486 206.101Z"/>
		<path fill="#F0EFED" d="M366.216 417.433C375.721 416.335 395.104 418.701 403.282 424.079C405.285 425.397 406.74 427.517 407.105 429.894C407.514 432.562 406.708 435.184 405.072 437.302C394.624 450.83 344.215 452.98 326.991 454.941C316.306 456.169 300.549 458.174 291.401 451.258C288.842 449.322 286.527 446.243 286.255 442.969C286.075 440.805 286.976 438.905 288.326 437.272C291.256 433.728 296.423 431.528 300.571 429.806C321.597 421.078 343.81 419.384 366.216 417.433Z"/>
		<path fill="#395951" d="M385.016 423.195C388.043 423.545 391.023 424.26 393.999 424.901C395.495 426.645 397.256 427.662 398.977 429.113C400.553 430.441 401.86 431.943 401.947 434.095C401.998 435.374 401.677 436.355 400.797 437.291C397.043 441.284 388.611 442.106 383.455 443.115C356.394 448.411 336.587 448.837 309.367 450.075C305.079 450.117 298.475 450.604 294.544 448.899C293.13 448.286 291.711 447.27 291.246 445.717C290.849 444.389 290.897 443.165 291.735 442.025C297.172 434.635 341.041 426.775 352.297 425.491C363.109 424.258 374.151 424.08 385.016 423.195Z"/>
	</g>
	<g/>
</svg>
